# xmcd
#
# Track frame offsets: 
#        150
#        10372
#        23140
#        36237
#        47837
#        59567
#        71225
#        83580
#        94135
#        106402
#        119895
#        133612
#        146542
#        159592
#        174110
#        186595
#
# Disc length: 2650 seconds
#
# Revision: 1
# Processed by: cddbd v1.5.2PL0 Copyright (c) Steve Scherf et al.
# Submitted via: ExactAudioCopy v0.95b3
#
DISCID=e70a5810
DTITLE=John Lee Hooker - I'm John Lee Hooker (Remaster)
DYEAR=1959
DGENRE=Blues
TTITLE0=Dimples
TTITLE1=Hobo Blues
TTITLE2=I'm So Excited
TTITLE3=I love You Honey
TTITLE4=Boogie Chillun
TTITLE5=Little Wheel
TTITLE6=I'm In The Mood
TTITLE7=Maudie
TTITLE8=Crawlin' King Snake
TTITLE9=Every Night
TTITLE10=Time Is Marching
TTITLE11=Baby Lee
TTITLE12=Unfriendly Woman
TTITLE13=I'm So Worried Baby (Alt. Take)
TTITLE14=Trouble Blues
TTITLE15=You Can Lead Me Baby
EXTD=YEAR: 1959 ID3G: 0
EXTT0=
EXTT1=
EXTT2=
EXTT3=
EXTT4=
EXTT5=
EXTT6=
EXTT7=
EXTT8=
EXTT9=
EXTT10=
EXTT11=
EXTT12=
EXTT13=
EXTT14=
EXTT15=
PLAYORDER=
